<svg width="36" height="76" viewBox="0 0 36 76" fill="none" xmlns="http://www.w3.org/2000/svg">
<path d="M0.965105 26.256C-2.74499 31.6912 4.6752 43.8158 15.8055 39.3004C26.9358 34.7014 27.1044 44.2338 24.0689 47.9966C18.6724 54.7697 20.2745 62.4625 20.2745 62.4625C20.2745 62.4625 22.3825 54.8533 30.8145 47.4113C42.3664 37.1263 31.4891 21.4898 18.0821 27.8447C7.62641 32.7782 6.86753 29.5171 6.78321 26.9249C6.69889 24.3328 10.9992 18.2287 10.9992 18.2287C10.9992 18.2287 4.59088 20.8208 0.965105 26.256Z" fill="url(#paint0_linear_2_142)"/>
<path d="M8.80679 8.19455C12.7698 11.7901 17.0702 8.8635 18.7566 10.6195C22.8883 14.5495 13.1915 24.2492 13.1915 24.2492C13.1915 24.2492 27.7789 19.5666 26.0081 9.86691C24.912 3.93004 19.5998 3.09386 14.119 4.51537C6.78311 6.43858 7.37335 0 7.37335 0C7.37335 0 4.6751 4.34813 8.80679 8.19455Z" fill="url(#paint1_linear_2_142)"/>
<path d="M16.2271 62.6298C10.0718 55.4387 17.4076 45.4045 17.4076 45.4045C17.4076 45.4045 6.44599 48.3311 5.85574 55.1042C5.2655 61.8772 8.80696 62.4626 11.4209 66.1417C14.0348 69.9046 12.2641 75.1725 12.2641 75.1725C12.2641 75.1725 21.1177 68.3994 16.2271 62.6298Z" fill="url(#paint2_linear_2_142)"/>
<defs>
<linearGradient id="paint0_linear_2_142" x1="0" y1="18.2287" x2="35.6932" y2="18.2287" gradientUnits="userSpaceOnUse">
<stop stop-color="#00FF8F"/>
<stop offset="1" stop-color="#00A1FF"/>
</linearGradient>
<linearGradient id="paint1_linear_2_142" x1="6.50781" y1="0" x2="26.1572" y2="0" gradientUnits="userSpaceOnUse">
<stop stop-color="#00FF8F"/>
<stop offset="1" stop-color="#00A1FF"/>
</linearGradient>
<linearGradient id="paint2_linear_2_142" x1="5.79053" y1="45.4045" x2="17.7002" y2="45.4045" gradientUnits="userSpaceOnUse">
<stop stop-color="#00FF8F"/>
<stop offset="1" stop-color="#00A1FF"/>
</linearGradient>
</defs>
</svg>
